<svg width="40" height="40" viewBox="0 0 40 40" fill="none" xmlns="http://www.w3.org/2000/svg">
<path d="M34.2876 7.62502H32.3875V32.3876H34.2876V30.4751H40.0001V28.5751H34.2876V24.7625H40.0001V22.8625H34.2876V17.15H40.0001V15.2375H34.2876V11.4375H40.0001V9.52502H34.2876V7.62502ZM7.625 32.3876V34.2876H9.525V40.0001H11.425V34.2876H15.2375V40.0001H17.15V34.2876H22.8625V40.0001H24.7625V34.2876H28.575V40.0001H30.475V34.2876H32.3875V32.3876H7.625ZM28.575 9.52502H11.425V11.4375H9.525V28.5751H11.425V26.6751H15.2375V24.7625H19.05V22.8625H20.95V20.9625H22.8625V19.05H24.7625V17.15H26.6625V13.3375H28.575V28.5751H30.475V11.4375H28.575V9.52502ZM17.15 19.05H13.3375V17.15H17.15V19.05ZM22.8625 15.2375H13.3375V13.3375H22.8625V15.2375ZM11.425 28.5751H28.575V30.4751H11.425V28.5751Z" fill="white"/>
<path d="M24.7625 24.7625H26.6626V26.6751H24.7625V24.7625ZM20.95 24.7625H22.8625V26.6751H20.95V24.7625ZM32.3876 7.62502V5.72501H30.4751V0H28.5751V5.72501H24.7625V0H22.8625V5.72501H17.15V0H15.2375V5.72501H11.425V0H9.52502V5.72501H7.62502V7.62502H32.3876ZM7.62502 7.62502H5.71251V9.52502H0V11.4375H5.71251V15.2375H0V17.15H5.71251V22.8625H0V24.7625H5.71251V28.5751H0V30.4751H5.71251V32.3876H7.62502V7.62502Z" fill="white"/>
</svg>
