<svg width="250" height="24" viewBox="0 0 250 24" fill="none" xmlns="http://www.w3.org/2000/svg">
<line y1="23" x2="250" y2="23" stroke="#082D3D" stroke-width="2"/>
<path d="M75.8398 16.5176C75.6966 16.5176 75.599 16.4753 75.5469 16.3906C75.5013 16.3125 75.4785 16.2376 75.4785 16.166C75.472 16.0944 75.4818 16.0293 75.5078 15.9707C75.5404 15.9056 75.5697 15.834 75.5957 15.7559L79.5996 5.08203C79.6452 4.93229 79.6973 4.80208 79.7559 4.69141C79.821 4.57422 79.9284 4.51562 80.0781 4.51562C80.2148 4.51562 80.3027 4.55143 80.3418 4.62305C80.3809 4.69466 80.4004 4.77279 80.4004 4.85742C80.4004 4.92253 80.3906 4.99089 80.3711 5.0625C80.3516 5.13411 80.3288 5.20573 80.3027 5.27734L76.2793 15.9609C76.2077 16.1107 76.1458 16.2409 76.0938 16.3516C76.0417 16.4622 75.957 16.5176 75.8398 16.5176ZM81.3086 16.5176C81.1654 16.5176 81.0677 16.4753 81.0156 16.3906C80.9701 16.3125 80.9473 16.2376 80.9473 16.166C80.9408 16.0944 80.9505 16.0293 80.9766 15.9707C81.0091 15.9056 81.0384 15.834 81.0645 15.7559L85.0684 5.08203C85.1139 4.93229 85.166 4.80208 85.2246 4.69141C85.2897 4.57422 85.3971 4.51562 85.5469 4.51562C85.6836 4.51562 85.7715 4.55143 85.8105 4.62305C85.8496 4.69466 85.8691 4.77279 85.8691 4.85742C85.8691 4.92253 85.8594 4.99089 85.8398 5.0625C85.8203 5.13411 85.7975 5.20573 85.7715 5.27734L81.748 15.9609C81.6764 16.1107 81.6146 16.2409 81.5625 16.3516C81.5104 16.4622 81.4258 16.5176 81.3086 16.5176ZM88.291 16C88.1022 16 87.9915 15.987 87.959 15.9609C87.9264 15.9284 87.9102 15.8275 87.9102 15.6582V5.48242C87.9102 5.29362 87.9264 5.1862 87.959 5.16016C87.9915 5.13411 88.1087 5.12109 88.3105 5.12109H95.0098C96.429 5.12109 97.6139 5.29036 98.5645 5.62891C99.5215 5.96745 100.241 6.53385 100.723 7.32812C101.211 8.11589 101.455 9.18685 101.455 10.541C101.455 11.9277 101.211 13.0182 100.723 13.8125C100.241 14.6068 99.5215 15.1699 98.5645 15.502C97.6139 15.834 96.429 16 95.0098 16H88.291ZM88.7402 15.3555H95.0098C96.4225 15.3555 97.5358 15.1927 98.3496 14.8672C99.1699 14.5352 99.7526 14.0143 100.098 13.3047C100.449 12.5951 100.625 11.6738 100.625 10.541C100.625 9.42122 100.449 8.50977 100.098 7.80664C99.7526 7.10352 99.1699 6.58919 98.3496 6.26367C97.5358 5.93164 96.4225 5.76562 95.0098 5.76562H88.7402V15.3555ZM108.447 16.1074C106.82 16.1074 105.645 15.7689 104.922 15.0918C104.199 14.4082 103.838 13.4577 103.838 12.2402C103.838 11.2311 104.043 10.4434 104.453 9.87695C104.87 9.31055 105.433 8.91016 106.143 8.67578C106.852 8.44141 107.643 8.32422 108.516 8.32422C109.87 8.32422 110.882 8.58464 111.553 9.10547C112.23 9.61979 112.568 10.3587 112.568 11.3223C112.568 11.498 112.542 11.7064 112.49 11.9473C112.438 12.1816 112.386 12.2988 112.334 12.2988L104.619 12.2012C104.645 13.4837 104.977 14.3594 105.615 14.8281C106.26 15.2969 107.201 15.5312 108.438 15.5312C109.167 15.5312 109.775 15.4661 110.264 15.3359C110.758 15.1992 111.156 15.0495 111.455 14.8867C111.761 14.7174 111.986 14.584 112.129 14.4863C112.148 14.4733 112.174 14.4668 112.207 14.4668C112.279 14.4668 112.344 14.5026 112.402 14.5742C112.467 14.6393 112.5 14.7109 112.5 14.7891C112.5 14.8607 112.467 14.9193 112.402 14.9648C112.331 15.0365 112.145 15.1667 111.846 15.3555C111.553 15.5378 111.126 15.7103 110.566 15.873C110.013 16.0293 109.307 16.1074 108.447 16.1074ZM104.629 11.7227H111.992V11.2637C111.992 10.8275 111.882 10.4336 111.66 10.082C111.439 9.72396 111.074 9.4375 110.566 9.22266C110.059 9.00781 109.375 8.90039 108.516 8.90039C107.311 8.90039 106.374 9.10872 105.703 9.52539C105.039 9.94206 104.681 10.6745 104.629 11.7227ZM119.717 16.0977C119.255 16.0977 118.743 16.0781 118.184 16.0391C117.624 16.0065 117.08 15.9251 116.553 15.7949C116.032 15.6582 115.583 15.4434 115.205 15.1504C115.114 15.0788 115.068 14.9941 115.068 14.8965C115.068 14.6882 115.153 14.584 115.322 14.584C115.374 14.584 115.413 14.597 115.439 14.623C115.986 15.0007 116.615 15.2448 117.324 15.3555C118.034 15.4661 118.799 15.5215 119.619 15.5215C120.27 15.5215 120.882 15.4759 121.455 15.3848C122.028 15.2936 122.49 15.1341 122.842 14.9062C123.2 14.6784 123.379 14.3626 123.379 13.959C123.379 13.5618 123.223 13.2656 122.91 13.0703C122.604 12.875 122.197 12.7415 121.689 12.6699C121.188 12.5983 120.635 12.556 120.029 12.543C119.424 12.5299 118.815 12.5104 118.203 12.4844C117.598 12.4583 117.041 12.39 116.533 12.2793C116.032 12.1621 115.625 11.9701 115.312 11.7031C115.007 11.4362 114.854 11.0553 114.854 10.5605C114.854 9.96159 115.059 9.5026 115.469 9.18359C115.885 8.85807 116.416 8.63346 117.061 8.50977C117.705 8.38607 118.372 8.32422 119.062 8.32422C119.896 8.32422 120.687 8.39583 121.436 8.53906C122.191 8.68229 122.878 8.91667 123.496 9.24219C123.6 9.30078 123.659 9.39193 123.672 9.51562C123.672 9.60026 123.646 9.67513 123.594 9.74023C123.542 9.80534 123.483 9.83789 123.418 9.83789C123.379 9.83789 123.353 9.83138 123.34 9.81836C122.786 9.53841 122.155 9.31706 121.445 9.1543C120.736 8.98503 119.954 8.90039 119.102 8.90039C118.516 8.90039 117.956 8.95247 117.422 9.05664C116.895 9.1543 116.465 9.32357 116.133 9.56445C115.801 9.80534 115.635 10.1374 115.635 10.5605C115.635 10.9382 115.788 11.2181 116.094 11.4004C116.406 11.5762 116.813 11.6966 117.314 11.7617C117.822 11.8268 118.379 11.8659 118.984 11.8789C119.596 11.8919 120.205 11.9147 120.811 11.9473C121.416 11.9798 121.969 12.0579 122.471 12.1816C122.979 12.3053 123.385 12.5072 123.691 12.7871C124.004 13.0605 124.16 13.4512 124.16 13.959C124.16 14.4928 123.949 14.916 123.525 15.2285C123.109 15.5345 122.562 15.7559 121.885 15.8926C121.208 16.0293 120.485 16.0977 119.717 16.0977ZM131.025 16.1074C129.398 16.1074 128.223 15.7689 127.5 15.0918C126.777 14.4082 126.416 13.4577 126.416 12.2402C126.416 11.2311 126.621 10.4434 127.031 9.87695C127.448 9.31055 128.011 8.91016 128.721 8.67578C129.43 8.44141 130.221 8.32422 131.094 8.32422C132.448 8.32422 133.46 8.58464 134.131 9.10547C134.808 9.61979 135.146 10.3587 135.146 11.3223C135.146 11.498 135.12 11.7064 135.068 11.9473C135.016 12.1816 134.964 12.2988 134.912 12.2988L127.197 12.2012C127.223 13.4837 127.555 14.3594 128.193 14.8281C128.838 15.2969 129.779 15.5312 131.016 15.5312C131.745 15.5312 132.354 15.4661 132.842 15.3359C133.337 15.1992 133.734 15.0495 134.033 14.8867C134.339 14.7174 134.564 14.584 134.707 14.4863C134.727 14.4733 134.753 14.4668 134.785 14.4668C134.857 14.4668 134.922 14.5026 134.98 14.5742C135.046 14.6393 135.078 14.7109 135.078 14.7891C135.078 14.8607 135.046 14.9193 134.98 14.9648C134.909 15.0365 134.723 15.1667 134.424 15.3555C134.131 15.5378 133.704 15.7103 133.145 15.873C132.591 16.0293 131.885 16.1074 131.025 16.1074ZM127.207 11.7227H134.57V11.2637C134.57 10.8275 134.46 10.4336 134.238 10.082C134.017 9.72396 133.652 9.4375 133.145 9.22266C132.637 9.00781 131.953 8.90039 131.094 8.90039C129.889 8.90039 128.952 9.10872 128.281 9.52539C127.617 9.94206 127.259 10.6745 127.207 11.7227ZM138.242 16C138.06 16 137.943 15.9251 137.891 15.7754C137.845 15.6257 137.822 15.4661 137.822 15.2969V8.96875C137.822 8.85807 137.845 8.75716 137.891 8.66602C137.936 8.56836 138.05 8.51953 138.232 8.51953C138.395 8.51953 138.496 8.5651 138.535 8.65625C138.581 8.74089 138.604 8.84505 138.604 8.96875V10.043C138.968 9.53516 139.388 9.16081 139.863 8.91992C140.339 8.67253 140.827 8.51302 141.328 8.44141C141.829 8.36328 142.301 8.32422 142.744 8.32422C143.675 8.32422 144.411 8.43815 144.951 8.66602C145.498 8.88737 145.889 9.25846 146.123 9.7793C146.357 10.3001 146.475 11.013 146.475 11.918V15.2969C146.475 15.4661 146.445 15.6257 146.387 15.7754C146.335 15.9251 146.23 16 146.074 16C145.885 16 145.775 15.9251 145.742 15.7754C145.71 15.6257 145.693 15.4661 145.693 15.2969V11.918C145.693 11.2409 145.618 10.681 145.469 10.2383C145.319 9.78906 145.029 9.45378 144.6 9.23242C144.176 9.01107 143.548 8.90039 142.715 8.90039C142.207 8.90039 141.663 8.95898 141.084 9.07617C140.511 9.19336 139.993 9.39518 139.531 9.68164C139.069 9.9681 138.76 10.3685 138.604 10.8828V15.2969C138.604 15.4661 138.584 15.6257 138.545 15.7754C138.506 15.9251 138.405 16 138.242 16ZM152.91 16.0977C152.773 16.0977 152.666 16.0521 152.588 15.9609C152.51 15.8698 152.451 15.7884 152.412 15.7168L148.604 9.21289C148.538 9.10872 148.506 8.99479 148.506 8.87109C148.506 8.63672 148.617 8.51953 148.838 8.51953C149.007 8.51953 149.15 8.62044 149.268 8.82227L152.91 15.2871L156.553 8.82227C156.67 8.62044 156.813 8.51953 156.982 8.51953C157.074 8.51953 157.152 8.55208 157.217 8.61719C157.282 8.67578 157.314 8.76042 157.314 8.87109C157.314 8.97526 157.282 9.08919 157.217 9.21289L153.408 15.7168C153.363 15.7884 153.301 15.8698 153.223 15.9609C153.145 16.0521 153.04 16.0977 152.91 16.0977ZM163.848 16.0977C162.65 16.0977 161.696 15.9414 160.986 15.6289C160.277 15.3164 159.766 14.8737 159.453 14.3008C159.147 13.7214 158.994 13.0345 158.994 12.2402C158.994 10.86 159.385 9.86393 160.166 9.25195C160.954 8.63346 162.181 8.32422 163.848 8.32422C165.514 8.32422 166.738 8.63346 167.52 9.25195C168.307 9.86393 168.701 10.86 168.701 12.2402C168.701 13.0345 168.545 13.7214 168.232 14.3008C167.926 14.8737 167.419 15.3164 166.709 15.6289C165.999 15.9414 165.046 16.0977 163.848 16.0977ZM163.848 15.5215C164.733 15.5215 165.446 15.4271 165.986 15.2383C166.527 15.0495 166.934 14.7956 167.207 14.4766C167.487 14.1576 167.676 13.806 167.773 13.4219C167.871 13.0312 167.92 12.6374 167.92 12.2402C167.92 11.0293 167.598 10.1699 166.953 9.66211C166.309 9.1543 165.273 8.90039 163.848 8.90039C162.422 8.90039 161.387 9.1543 160.742 9.66211C160.098 10.1699 159.775 11.0293 159.775 12.2402C159.775 12.6374 159.824 13.0312 159.922 13.4219C160.02 13.806 160.205 14.1576 160.479 14.4766C160.758 14.7956 161.169 15.0495 161.709 15.2383C162.249 15.4271 162.962 15.5215 163.848 15.5215ZM171.865 16C171.676 16 171.562 15.9349 171.523 15.8047C171.484 15.668 171.465 15.5117 171.465 15.3359V5.82422C171.465 5.63542 171.484 5.47266 171.523 5.33594C171.569 5.19271 171.689 5.12109 171.885 5.12109C172.048 5.12109 172.148 5.19271 172.188 5.33594C172.227 5.47917 172.246 5.63542 172.246 5.80469V15.3164C172.246 15.5052 172.223 15.668 172.178 15.8047C172.132 15.9349 172.028 16 171.865 16ZM178.809 16.0977C178.672 16.0977 178.564 16.0521 178.486 15.9609C178.408 15.8698 178.35 15.7884 178.311 15.7168L174.502 9.21289C174.437 9.10872 174.404 8.99479 174.404 8.87109C174.404 8.63672 174.515 8.51953 174.736 8.51953C174.906 8.51953 175.049 8.62044 175.166 8.82227L178.809 15.2871L182.451 8.82227C182.568 8.62044 182.712 8.51953 182.881 8.51953C182.972 8.51953 183.05 8.55208 183.115 8.61719C183.18 8.67578 183.213 8.76042 183.213 8.87109C183.213 8.97526 183.18 9.08919 183.115 9.21289L179.307 15.7168C179.261 15.7884 179.199 15.8698 179.121 15.9609C179.043 16.0521 178.939 16.0977 178.809 16.0977ZM189.482 16.1074C187.855 16.1074 186.68 15.7689 185.957 15.0918C185.234 14.4082 184.873 13.4577 184.873 12.2402C184.873 11.2311 185.078 10.4434 185.488 9.87695C185.905 9.31055 186.468 8.91016 187.178 8.67578C187.887 8.44141 188.678 8.32422 189.551 8.32422C190.905 8.32422 191.917 8.58464 192.588 9.10547C193.265 9.61979 193.604 10.3587 193.604 11.3223C193.604 11.498 193.577 11.7064 193.525 11.9473C193.473 12.1816 193.421 12.2988 193.369 12.2988L185.654 12.2012C185.68 13.4837 186.012 14.3594 186.65 14.8281C187.295 15.2969 188.236 15.5312 189.473 15.5312C190.202 15.5312 190.811 15.4661 191.299 15.3359C191.794 15.1992 192.191 15.0495 192.49 14.8867C192.796 14.7174 193.021 14.584 193.164 14.4863C193.184 14.4733 193.21 14.4668 193.242 14.4668C193.314 14.4668 193.379 14.5026 193.438 14.5742C193.503 14.6393 193.535 14.7109 193.535 14.7891C193.535 14.8607 193.503 14.9193 193.438 14.9648C193.366 15.0365 193.18 15.1667 192.881 15.3555C192.588 15.5378 192.161 15.7103 191.602 15.873C191.048 16.0293 190.342 16.1074 189.482 16.1074ZM185.664 11.7227H193.027V11.2637C193.027 10.8275 192.917 10.4336 192.695 10.082C192.474 9.72396 192.109 9.4375 191.602 9.22266C191.094 9.00781 190.41 8.90039 189.551 8.90039C188.346 8.90039 187.409 9.10872 186.738 9.52539C186.074 9.94206 185.716 10.6745 185.664 11.7227ZM200.254 16.0977C199.473 16.0977 198.753 15.9837 198.096 15.7559C197.445 15.528 196.921 15.1374 196.523 14.584C196.126 14.0306 195.928 13.2656 195.928 12.2891C195.928 10.8307 196.302 9.80534 197.051 9.21289C197.806 8.62044 198.874 8.32422 200.254 8.32422C201.165 8.32422 201.914 8.39258 202.5 8.5293C203.086 8.66602 203.548 8.83203 203.887 9.02734C204.232 9.21615 204.486 9.39518 204.648 9.56445V5.81445C204.648 5.63867 204.665 5.47917 204.697 5.33594C204.73 5.19271 204.84 5.12109 205.029 5.12109C205.218 5.12109 205.332 5.1862 205.371 5.31641C205.41 5.44661 205.43 5.60612 205.43 5.79492V15.4727C205.43 15.681 205.387 15.821 205.303 15.8926C205.225 15.9642 205.14 16 205.049 16C204.938 16 204.844 15.9674 204.766 15.9023C204.688 15.8372 204.648 15.7005 204.648 15.4922V14.1348C204.544 14.5514 204.32 14.89 203.975 15.1504C203.636 15.4108 203.242 15.6094 202.793 15.7461C202.344 15.8828 201.891 15.974 201.436 16.0195C200.98 16.0716 200.586 16.0977 200.254 16.0977ZM200.254 15.5215C200.645 15.5215 201.068 15.4954 201.523 15.4434C201.986 15.3848 202.432 15.2839 202.861 15.1406C203.291 14.9974 203.665 14.7988 203.984 14.5449C204.31 14.2845 204.531 13.9492 204.648 13.5391V10.0234C204.453 9.86068 204.176 9.69466 203.818 9.52539C203.467 9.34961 203.001 9.20312 202.422 9.08594C201.849 8.96224 201.126 8.90039 200.254 8.90039C199.004 8.90039 198.099 9.17057 197.539 9.71094C196.986 10.2448 196.709 11.1042 196.709 12.2891C196.709 13.1094 196.868 13.7572 197.188 14.2324C197.507 14.7012 197.933 15.0332 198.467 15.2285C199.007 15.4238 199.603 15.5215 200.254 15.5215ZM213.047 16.0977C211.849 16.0977 210.895 15.9414 210.186 15.6289C209.476 15.3164 208.965 14.8737 208.652 14.3008C208.346 13.7214 208.193 13.0345 208.193 12.2402C208.193 10.86 208.584 9.86393 209.365 9.25195C210.153 8.63346 211.38 8.32422 213.047 8.32422C214.714 8.32422 215.938 8.63346 216.719 9.25195C217.507 9.86393 217.9 10.86 217.9 12.2402C217.9 13.0345 217.744 13.7214 217.432 14.3008C217.126 14.8737 216.618 15.3164 215.908 15.6289C215.199 15.9414 214.245 16.0977 213.047 16.0977ZM213.047 15.5215C213.932 15.5215 214.645 15.4271 215.186 15.2383C215.726 15.0495 216.133 14.7956 216.406 14.4766C216.686 14.1576 216.875 13.806 216.973 13.4219C217.07 13.0312 217.119 12.6374 217.119 12.2402C217.119 11.0293 216.797 10.1699 216.152 9.66211C215.508 9.1543 214.473 8.90039 213.047 8.90039C211.621 8.90039 210.586 9.1543 209.941 9.66211C209.297 10.1699 208.975 11.0293 208.975 12.2402C208.975 12.6374 209.023 13.0312 209.121 13.4219C209.219 13.806 209.404 14.1576 209.678 14.4766C209.958 14.7956 210.368 15.0495 210.908 15.2383C211.449 15.4271 212.161 15.5215 213.047 15.5215ZM221.045 16C220.863 16 220.749 15.9284 220.703 15.7852C220.664 15.6419 220.645 15.4857 220.645 15.3164V9.06641C220.645 8.91667 220.671 8.78971 220.723 8.68555C220.781 8.57487 220.902 8.51953 221.084 8.51953C221.227 8.51953 221.318 8.57161 221.357 8.67578C221.403 8.77995 221.426 8.91016 221.426 9.06641V10.1992C221.569 9.66536 221.833 9.26497 222.217 8.99805C222.607 8.73112 223.031 8.55208 223.486 8.46094C223.942 8.36979 224.339 8.32422 224.678 8.32422C225.179 8.32422 225.547 8.35026 225.781 8.40234C226.016 8.45443 226.224 8.50651 226.406 8.55859C226.543 8.59766 226.611 8.69531 226.611 8.85156C226.611 8.9362 226.582 9.01432 226.523 9.08594C226.471 9.15755 226.39 9.19336 226.279 9.19336C226.253 9.19336 226.234 9.19336 226.221 9.19336C226.214 9.18685 226.195 9.18034 226.162 9.17383C225.908 9.10221 225.664 9.04688 225.43 9.00781C225.195 8.96875 224.945 8.94922 224.678 8.94922C223.91 8.94922 223.226 9.10221 222.627 9.4082C222.035 9.70768 221.634 10.1797 221.426 10.8242V15.3164C221.426 15.4857 221.403 15.6419 221.357 15.7852C221.312 15.9284 221.208 16 221.045 16ZM232.803 16.1074C231.175 16.1074 230 15.7689 229.277 15.0918C228.555 14.4082 228.193 13.4577 228.193 12.2402C228.193 11.2311 228.398 10.4434 228.809 9.87695C229.225 9.31055 229.788 8.91016 230.498 8.67578C231.208 8.44141 231.999 8.32422 232.871 8.32422C234.225 8.32422 235.238 8.58464 235.908 9.10547C236.585 9.61979 236.924 10.3587 236.924 11.3223C236.924 11.498 236.898 11.7064 236.846 11.9473C236.794 12.1816 236.742 12.2988 236.689 12.2988L228.975 12.2012C229.001 13.4837 229.333 14.3594 229.971 14.8281C230.615 15.2969 231.556 15.5312 232.793 15.5312C233.522 15.5312 234.131 15.4661 234.619 15.3359C235.114 15.1992 235.511 15.0495 235.811 14.8867C236.117 14.7174 236.341 14.584 236.484 14.4863C236.504 14.4733 236.53 14.4668 236.562 14.4668C236.634 14.4668 236.699 14.5026 236.758 14.5742C236.823 14.6393 236.855 14.7109 236.855 14.7891C236.855 14.8607 236.823 14.9193 236.758 14.9648C236.686 15.0365 236.501 15.1667 236.201 15.3555C235.908 15.5378 235.482 15.7103 234.922 15.873C234.368 16.0293 233.662 16.1074 232.803 16.1074ZM228.984 11.7227H236.348V11.2637C236.348 10.8275 236.237 10.4336 236.016 10.082C235.794 9.72396 235.43 9.4375 234.922 9.22266C234.414 9.00781 233.73 8.90039 232.871 8.90039C231.667 8.90039 230.729 9.10872 230.059 9.52539C229.395 9.94206 229.036 10.6745 228.984 11.7227ZM244.072 16.0977C243.61 16.0977 243.099 16.0781 242.539 16.0391C241.979 16.0065 241.436 15.9251 240.908 15.7949C240.387 15.6582 239.938 15.4434 239.561 15.1504C239.469 15.0788 239.424 14.9941 239.424 14.8965C239.424 14.6882 239.508 14.584 239.678 14.584C239.73 14.584 239.769 14.597 239.795 14.623C240.342 15.0007 240.97 15.2448 241.68 15.3555C242.389 15.4661 243.154 15.5215 243.975 15.5215C244.626 15.5215 245.238 15.4759 245.811 15.3848C246.383 15.2936 246.846 15.1341 247.197 14.9062C247.555 14.6784 247.734 14.3626 247.734 13.959C247.734 13.5618 247.578 13.2656 247.266 13.0703C246.96 12.875 246.553 12.7415 246.045 12.6699C245.544 12.5983 244.99 12.556 244.385 12.543C243.779 12.5299 243.171 12.5104 242.559 12.4844C241.953 12.4583 241.396 12.39 240.889 12.2793C240.387 12.1621 239.98 11.9701 239.668 11.7031C239.362 11.4362 239.209 11.0553 239.209 10.5605C239.209 9.96159 239.414 9.5026 239.824 9.18359C240.241 8.85807 240.771 8.63346 241.416 8.50977C242.061 8.38607 242.728 8.32422 243.418 8.32422C244.251 8.32422 245.042 8.39583 245.791 8.53906C246.546 8.68229 247.233 8.91667 247.852 9.24219C247.956 9.30078 248.014 9.39193 248.027 9.51562C248.027 9.60026 248.001 9.67513 247.949 9.74023C247.897 9.80534 247.839 9.83789 247.773 9.83789C247.734 9.83789 247.708 9.83138 247.695 9.81836C247.142 9.53841 246.51 9.31706 245.801 9.1543C245.091 8.98503 244.31 8.90039 243.457 8.90039C242.871 8.90039 242.311 8.95247 241.777 9.05664C241.25 9.1543 240.82 9.32357 240.488 9.56445C240.156 9.80534 239.99 10.1374 239.99 10.5605C239.99 10.9382 240.143 11.2181 240.449 11.4004C240.762 11.5762 241.169 11.6966 241.67 11.7617C242.178 11.8268 242.734 11.8659 243.34 11.8789C243.952 11.8919 244.561 11.9147 245.166 11.9473C245.771 11.9798 246.325 12.0579 246.826 12.1816C247.334 12.3053 247.741 12.5072 248.047 12.7871C248.359 13.0605 248.516 13.4512 248.516 13.959C248.516 14.4928 248.304 14.916 247.881 15.2285C247.464 15.5345 246.917 15.7559 246.24 15.8926C245.563 16.0293 244.84 16.0977 244.072 16.0977Z" fill="white"/>
</svg>
