<svg width="175" height="41" viewBox="0 0 175 41" fill="none" xmlns="http://www.w3.org/2000/svg">
<path d="M5.824 10.79H0.39V7.8H14.794V10.79H9.36V26H5.824V10.79ZM16.8736 7.8H30.0296V10.79H20.4096V15.392H29.2756V18.33H20.4096V23.01H30.0296V26H16.8736V7.8ZM37.7372 7.8H40.9612L47.6172 26H44.0292L42.5472 21.97H36.1512L34.6692 26H31.0812L37.7372 7.8ZM41.7672 19.058L39.3492 12.142H39.2972L36.9572 19.058H41.7672ZM49.4498 7.8H52.7258L58.1338 19.552H58.1858L63.6198 7.8H66.8958V26H63.4898V14.924H63.4378L59.2518 23.452H57.0678L52.9078 14.924H52.8558V26H49.4498V7.8ZM70.2701 7.8H73.5461L78.9541 19.552H79.0061L84.4401 7.8H87.7161V26H84.3101V14.924H84.2581L80.0721 23.452H77.8881L73.7281 14.924H73.6761V26H70.2701V7.8ZM96.1864 7.8H99.4104L106.066 26H102.478L100.996 21.97H94.6004L93.1184 26H89.5304L96.1864 7.8ZM100.216 19.058L97.7984 12.142H97.7464L95.4064 19.058H100.216ZM109.697 10.79H104.263V7.8H118.667V10.79H113.233V26H109.697V10.79ZM120.747 7.8H133.903V10.79H124.283V15.392H133.149V18.33H124.283V23.01H133.903V26H120.747V7.8ZM136.124 23.192V20.592H139.608V22.126L140.466 22.984H145.848L146.732 22.1V19.084L145.874 18.226H138.984L136.176 15.418V10.608L138.984 7.8H147.2L150.008 10.608V13.234H146.524V11.674L145.666 10.816H140.518L139.66 11.674V14.352L140.518 15.21H147.408L150.216 18.018V23.14L147.356 26H138.932L136.124 23.192Z" fill="#DCFEFF"/>
<path d="M0 35L61.119 35" stroke="#2BDEFD"/>
<path d="M79.8895 35L151 35" stroke="#2BDEFD"/>
<path d="M69.1978 33.993L67.8245 36.0001L69.1978 38.0071C69.2174 38.0357 69.2314 38.0742 69.238 38.1173C69.2447 38.1604 69.2436 38.206 69.2349 38.248C69.2263 38.2899 69.2104 38.3262 69.1896 38.3519C69.1688 38.3775 69.1439 38.3913 69.1185 38.3913C69.0894 38.3916 69.0613 38.3736 69.0391 38.3408L67.5514 36.1669C67.5375 36.1465 67.5263 36.121 67.5186 36.0922C67.5109 36.0633 67.5069 36.0319 67.5069 36.0001C67.5069 35.9682 67.5109 35.9368 67.5186 35.908C67.5263 35.8791 67.5375 35.8536 67.5514 35.8332L69.0391 33.6593C69.0645 33.6249 69.0965 33.6091 69.1284 33.6152C69.1603 33.6213 69.1897 33.6488 69.2102 33.6921C69.2308 33.7353 69.241 33.7908 69.2387 33.8469C69.2363 33.9031 69.2217 33.9554 69.1978 33.993ZM74.6529 35.8332L73.1651 33.6593C73.1527 33.6398 73.1382 33.6249 73.1225 33.6154C73.1067 33.6059 73.09 33.6021 73.0734 33.6042C73.0568 33.6064 73.0405 33.6143 73.0257 33.6276C73.0109 33.641 72.9978 33.6594 72.9871 33.6819C72.9764 33.7043 72.9684 33.7303 72.9636 33.7582C72.9588 33.7862 72.9572 33.8156 72.959 33.8447C72.9609 33.8737 72.966 33.9018 72.9741 33.9273C72.9823 33.9528 72.9933 33.9751 73.0064 33.993L74.3798 36.0001L73.0064 38.0071C72.9933 38.025 72.9823 38.0473 72.9741 38.0728C72.966 38.0983 72.9609 38.1264 72.959 38.1555C72.9572 38.1845 72.9588 38.2139 72.9636 38.2419C72.9684 38.2699 72.9764 38.2958 72.9871 38.3183C72.9978 38.3407 73.0109 38.3592 73.0257 38.3725C73.0405 38.3858 73.0568 38.3938 73.0734 38.3959C73.09 38.398 73.1067 38.3942 73.1225 38.3847C73.1382 38.3753 73.1527 38.3603 73.1651 38.3408L74.6529 36.1669C74.6668 36.1465 74.678 36.121 74.6857 36.0922C74.6934 36.0633 74.6974 36.0319 74.6974 36.0001C74.6974 35.9682 74.6934 35.9368 74.6857 35.908C74.678 35.8791 74.6668 35.8536 74.6529 35.8332ZM72.1364 31.0132C72.1211 31.0034 72.1049 30.999 72.0886 31.0002C72.0723 31.0014 72.0563 31.0083 72.0416 31.0203C72.0268 31.0324 72.0135 31.0494 72.0025 31.0705C71.9915 31.0916 71.983 31.1162 71.9774 31.1431L69.9938 40.7082C69.9882 40.735 69.9857 40.7635 69.9864 40.792C69.9871 40.8206 69.991 40.8486 69.9979 40.8745C70.0047 40.9004 70.0145 40.9236 70.0265 40.9429C70.0385 40.9622 70.0525 40.9772 70.0678 40.987C70.0815 40.9955 70.0958 40.9999 70.1103 41C70.1358 41 70.1606 40.9863 70.1814 40.9607C70.2023 40.9352 70.2181 40.899 70.2268 40.8571L72.2105 31.292C72.2161 31.2651 72.2186 31.2366 72.2179 31.2081C72.2172 31.1796 72.2133 31.1515 72.2064 31.1257C72.1995 31.0998 72.1898 31.0765 72.1778 31.0572C72.1658 31.0379 72.1517 31.0229 72.1364 31.0132Z" fill="#2BDEFD"/>
</svg>
